<?xml version="1.0" standalone="no"?>
<!DOCTYPE svg PUBLIC "-//W3C//DTD SVG 20010904//EN"
 "http://www.w3.org/TR/2001/REC-SVG-20010904/DTD/svg10.dtd">
<svg version="1.0" xmlns="http://www.w3.org/2000/svg"
 width="470.000000pt" height="470.000000pt" viewBox="0 0 470.000000 470.000000"
 preserveAspectRatio="xMidYMid meet">
<metadata>
Created by potrace 1.11, written by Peter Selinger 2001-2013
</metadata>
<g transform="translate(0.000000,470.000000) scale(0.100000,-0.100000)"
fill="#000000" stroke="none">
<path d="M2179 4696 c-2 -2 -36 -6 -75 -10 -100 -8 -315 -51 -431 -86 -245
-73 -513 -207 -718 -359 -258 -192 -498 -460 -640 -716 -21 -38 -46 -84 -56
-102 -72 -128 -164 -385 -203 -568 -43 -198 -53 -310 -50 -540 4 -204 5 -231
18 -305 4 -19 11 -62 17 -95 46 -273 173 -589 337 -840 346 -531 890 -904
1492 -1024 211 -42 254 -46 480 -46 197 0 252 4 395 29 252 44 434 105 660
218 555 279 979 769 1175 1358 28 84 66 227 75 285 2 11 9 47 14 80 21 122 25
174 26 355 0 172 -7 302 -21 375 -23 123 -39 198 -54 255 -125 467 -418 917
-795 1219 -223 179 -545 351 -780 417 -106 29 -201 53 -235 59 -84 14 -147 24
-180 30 -37 7 -445 16 -451 11z"/>
</g>
</svg>
